<svg width="27" height="24" viewBox="0 0 27 24" fill="none" xmlns="http://www.w3.org/2000/svg">
<path d="M23.1775 5.88892H3.46417C2.10325 5.88892 1 6.98333 1 8.33336V20.5556C1 21.9056 2.10325 23 3.46417 23H23.1775C24.5385 23 25.6417 21.9056 25.6417 20.5556V8.33336C25.6417 6.98333 24.5385 5.88892 23.1775 5.88892Z" stroke="#543F99" stroke-width="2" stroke-linecap="round" stroke-linejoin="round"/>
<path d="M18.2502 23V3.44444C18.2502 2.79614 17.9906 2.17438 17.5285 1.71596C17.0664 1.25754 16.4396 1 15.7861 1H10.8577C10.2042 1 9.57742 1.25754 9.11529 1.71596C8.65317 2.17438 8.39355 2.79614 8.39355 3.44444V23" stroke="#543F99" stroke-width="2" stroke-linecap="round" stroke-linejoin="round"/>
</svg>
