<svg width="11" height="6" viewBox="0 0 11 6" fill="none" xmlns="http://www.w3.org/2000/svg">
<path id="Vector" d="M4.89951 5.88597C4.92885 5.92066 4.97089 5.94945 5.02142 5.96946C5.07195 5.98947 5.12922 6 5.1875 6C5.24578 6 5.30305 5.98947 5.35358 5.96946C5.40411 5.94945 5.44615 5.92066 5.47549 5.88597L10.1421 0.373855C10.1716 0.338951 10.1873 0.299292 10.1875 0.25888C10.1877 0.218469 10.1724 0.178736 10.1432 0.143695C10.114 0.108654 10.0719 0.079545 10.0211 0.0593061C9.97034 0.0390677 9.91272 0.0284171 9.85407 0.028429L0.520926 0.028429C0.462276 0.0284171 0.404659 0.0390677 0.353894 0.0593061C0.303129 0.079545 0.261012 0.108654 0.231797 0.143695C0.202582 0.178736 0.187303 0.218469 0.187502 0.25888C0.187701 0.299292 0.203371 0.338951 0.232931 0.373855L4.89951 5.88597Z" fill="#543F99"/>
</svg>
