<svg width="11" height="8" viewBox="0 0 11 8" fill="none" xmlns="http://www.w3.org/2000/svg">
<path d="M5.18321 7.84723C5.21549 7.89371 5.26172 7.93228 5.31731 7.95909C5.3729 7.98589 5.43589 8 5.5 8C5.56411 8 5.6271 7.98589 5.68269 7.95909C5.73827 7.93228 5.78451 7.89371 5.81679 7.84723L10.95 0.46276C10.9825 0.416 10.9998 0.362869 11 0.308731C11.0002 0.254592 10.9834 0.201364 10.9513 0.15442C10.9191 0.107476 10.8728 0.0684786 10.817 0.0413656C10.7611 0.0142527 10.6977 -1.62125e-05 10.6332 0L0.366768 0C0.302253 -1.62125e-05 0.238875 0.0142527 0.183033 0.0413656C0.127192 0.0684786 0.080863 0.107476 0.048727 0.15442C0.0165901 0.201364 -0.000217438 0.254592 1.90735e-06 0.308731C0.000221252 0.362869 0.017458 0.416 0.0499744 0.46276L5.18321 7.84723Z" fill="#FF7D6F"/>
</svg>
