<svg width="22" height="24" viewBox="0 0 22 24" fill="none" xmlns="http://www.w3.org/2000/svg">
<g id="Group 835">
<path id="Vector" d="M17.875 8.4V6C17.875 2.64 14.85 0 11 0C7.15 0 4.125 2.64 4.125 6V8.4C1.7875 8.4 0 9.96 0 12V20.4C0 22.44 1.7875 24 4.125 24H17.875C20.2125 24 22 22.44 22 20.4V12C22 9.96 20.2125 8.4 17.875 8.4ZM6.875 6C6.875 3.96 8.6625 2.4 11 2.4C13.3375 2.4 15.125 3.96 15.125 6V8.4H6.875V6ZM12.5125 16.2L12.375 16.32V18C12.375 18.72 11.825 19.2 11 19.2C10.175 19.2 9.625 18.72 9.625 18V16.32C8.8 15.6 8.6625 14.52 9.4875 13.8C10.3125 13.08 11.55 12.96 12.375 13.68C13.2 14.28 13.3375 15.48 12.5125 16.2Z" fill="#543F99"/>
</g>
</svg>
