<svg width="20" height="20" viewBox="0 0 20 20" fill="none" xmlns="http://www.w3.org/2000/svg">
<g id="Group 869">
<path id="Vector" d="M10 0C4.47581 0 0 4.47581 0 10C0 15.5242 4.47581 20 10 20C15.5242 20 20 15.5242 20 10C20 4.47581 15.5242 0 10 0ZM10 19.4677C4.77016 19.4677 0.532258 15.2298 0.532258 10C0.532258 4.77016 4.77016 0.532258 10 0.532258C15.2298 0.532258 19.4677 4.77016 19.4677 10C19.4677 15.2298 15.2298 19.4677 10 19.4677ZM16.254 6.22177V4.33468H8.43952V7.62903H2.18548L3.66532 9.48387H8.41129V17.4194H10.379V9.52419H13.7379V7.62903H10.379V6.22581H16.254V6.22177ZM13.2984 8.04032V9.00403H9.95564V16.9637H8.875V9.00403H3.88306L3.07258 8.04032H8.875V4.79032H15.8024V5.77419H9.95564V8.04032H13.2984ZM6.79435 5.25806L6.29435 4.42339L6.37903 5.38306L5.43145 5.60081L6.37097 5.81855L6.28629 6.78629L6.78226 5.95968L7.67742 6.34274L7.04435 5.6129L7.68145 4.88306L6.79435 5.25806ZM5.60081 4.46371L5.97581 4L5.46371 4.2379L5.14113 3.7379L5.20968 4.29839L4.63306 4.45161L5.18548 4.56048L5.15323 5.15323L5.42742 4.66129L5.98387 4.875L5.60081 4.46371ZM12.2702 10.3185L11.7419 10.5444L11.4476 10.0524L11.5 10.625L10.9395 10.754L11.5 10.8831L11.4516 11.4556L11.746 10.9637L12.2742 11.1855L11.8952 10.754L12.2702 10.3185ZM16.5806 7.20564L15.7379 7.57258L15.254 6.78226L15.3427 7.69758L14.4435 7.91532L15.3387 8.1129L15.2661 9.03629L15.7298 8.24597L16.5847 8.60081L15.9758 7.91532L16.5806 7.20564ZM10 0.850806C4.94758 0.850806 0.850806 4.94758 0.850806 10C0.850806 15.0524 4.94758 19.1492 10 19.1492C15.0524 19.1492 19.1492 15.0524 19.1492 10C19.1492 4.94758 15.0524 0.850806 10 0.850806ZM13.8145 7.54839V9.60484H10.4556V17.496H8.33065V9.56048H3.625L2.0121 7.54839H8.35887V4.25806H16.3347V6.30242H10.4597V7.54839H13.8145ZM10 1.3871C12.4315 1.3871 14.629 2.39516 16.1935 4.01613H8.16532V7.30645H1.81855C2.94758 3.87097 6.18548 1.3871 10 1.3871ZM10 18.6089C5.24597 18.6089 1.3871 14.754 1.3871 10C1.3871 9.14516 1.5121 8.31452 1.74597 7.53629L3.5121 9.80645H8.1371V17.7419H10.7419V9.84677H14.1008V7.31855H10.746V6.54435H16.6169V4.49597C17.8589 5.9879 18.6048 7.90726 18.6048 10C18.6089 14.754 14.754 18.6089 10 18.6089ZM7.20968 10.7339L6.76613 9.87097L6.83468 10.8589L5.87903 11.0161L6.83871 11.254L6.68952 12.2137L7.21371 11.371L8.08064 11.8065L7.44355 11.0484L8.125 10.3589L7.20968 10.7339Z" fill="#543F99"/>
</g>
</svg>
