<svg width="26" height="24" viewBox="0 0 26 24" fill="none" xmlns="http://www.w3.org/2000/svg">
<path d="M22.6 5.88892H3.4C2.07452 5.88892 1 6.98333 1 8.33336V20.5556C1 21.9056 2.07452 23 3.4 23H22.6C23.9255 23 25 21.9056 25 20.5556V8.33336C25 6.98333 23.9255 5.88892 22.6 5.88892Z" stroke="white" stroke-width="2" stroke-linecap="round" stroke-linejoin="round"/>
<path d="M17.8011 23V3.44444C17.8011 2.79614 17.5483 2.17438 17.0982 1.71596C16.6481 1.25754 16.0377 1 15.4011 1H10.6011C9.96461 1 9.35417 1.25754 8.90408 1.71596C8.45399 2.17438 8.20113 2.79614 8.20113 3.44444V23" stroke="white" stroke-width="2" stroke-linecap="round" stroke-linejoin="round"/>
</svg>
