<svg width="11" height="7" viewBox="0 0 11 7" fill="none" xmlns="http://www.w3.org/2000/svg">
<path d="M4.74702 5.95701C4.77632 5.99171 4.81829 6.0205 4.86874 6.04051C4.91919 6.06052 4.97636 6.07104 5.03455 6.07104C5.09273 6.07104 5.1499 6.06052 5.20035 6.04051C5.2508 6.0205 5.29277 5.99171 5.32207 5.95701L9.98101 0.444898C10.0105 0.409994 10.0262 0.370335 10.0264 0.329923C10.0266 0.289512 10.0113 0.24978 9.98214 0.214738C9.95298 0.179698 9.91093 0.150588 9.86025 0.13035C9.80956 0.110111 9.75204 0.0994601 9.69349 0.099472L0.375605 0.099472C0.31705 0.0994601 0.259528 0.110111 0.208846 0.13035C0.158164 0.150588 0.116117 0.179698 0.0869493 0.214738C0.0577822 0.24978 0.0425272 0.289512 0.0427265 0.329923C0.0429249 0.370335 0.0585699 0.409994 0.0880814 0.444898L4.74702 5.95701Z" fill="#543F99"/>
</svg>
