<svg width="26" height="26" viewBox="0 0 26 26" fill="none" xmlns="http://www.w3.org/2000/svg">
<path d="M14.2414 13.1379H5.41379C4.24318 13.1379 3.12052 13.5642 2.29277 14.323C1.46502 15.0817 1 16.1109 1 17.1839V19.2069" stroke="white" stroke-width="2" stroke-linecap="round" stroke-linejoin="round"/>
<path d="M9.82761 9.09205C12.2653 9.09205 14.2414 7.28058 14.2414 5.04602C14.2414 2.81147 12.2653 1 9.82761 1C7.38994 1 5.41382 2.81147 5.41382 5.04602C5.41382 7.28058 7.38994 9.09205 9.82761 9.09205Z" stroke="white" stroke-width="2" stroke-linecap="round" stroke-linejoin="round"/>
<path d="M17.843 19.5831C18.9649 19.5831 19.8743 18.6736 19.8743 17.5517C19.8743 16.4299 18.9649 15.5204 17.843 15.5204C16.7211 15.5204 15.8116 16.4299 15.8116 17.5517C15.8116 18.6736 16.7211 19.5831 17.843 19.5831Z" stroke="white" stroke-width="2" stroke-linecap="round" stroke-linejoin="round"/>
<path d="M22.5624 19.583C22.4723 19.7872 22.4454 20.0138 22.4852 20.2334C22.525 20.4531 22.6297 20.6558 22.7858 20.8154L22.8265 20.856C22.9524 20.9818 23.0523 21.1311 23.1204 21.2955C23.1886 21.4599 23.2236 21.6361 23.2236 21.8141C23.2236 21.9921 23.1886 22.1683 23.1204 22.3327C23.0523 22.4971 22.9524 22.6465 22.8265 22.7722C22.7007 22.8981 22.5513 22.998 22.3869 23.0662C22.2225 23.1343 22.0463 23.1694 21.8683 23.1694C21.6904 23.1694 21.5142 23.1343 21.3498 23.0662C21.1854 22.998 21.036 22.8981 20.9102 22.7722L20.8696 22.7316C20.71 22.5755 20.5073 22.4708 20.2877 22.431C20.068 22.3911 19.8415 22.418 19.6372 22.5082C19.437 22.594 19.2662 22.7365 19.1459 22.9182C19.0256 23.0998 18.961 23.3127 18.9601 23.5306V23.6457C18.9601 24.0049 18.8175 24.3493 18.5635 24.6033C18.3095 24.8573 17.9651 24.9999 17.6059 24.9999C17.2467 24.9999 16.9023 24.8573 16.6483 24.6033C16.3943 24.3493 16.2517 24.0049 16.2517 23.6457V23.5848C16.2464 23.3607 16.1739 23.1433 16.0435 22.9609C15.913 22.7786 15.7308 22.6397 15.5204 22.5623C15.3162 22.4722 15.0896 22.4453 14.87 22.4851C14.6503 22.525 14.4476 22.6297 14.288 22.7858L14.2474 22.8264C14.1216 22.9523 13.9723 23.0522 13.8079 23.1204C13.6435 23.1885 13.4673 23.2236 13.2893 23.2236C13.1113 23.2236 12.9351 23.1885 12.7707 23.1204C12.6063 23.0522 12.4569 22.9523 12.3312 22.8264C12.2053 22.7006 12.1054 22.5513 12.0372 22.3869C11.9691 22.2225 11.934 22.0463 11.934 21.8683C11.934 21.6903 11.9691 21.5141 12.0372 21.3497C12.1054 21.1853 12.2053 21.0359 12.3312 20.9102L12.3718 20.8695C12.5279 20.71 12.6326 20.5073 12.6724 20.2876C12.7123 20.068 12.6854 19.8414 12.5952 19.6372C12.5094 19.4369 12.3669 19.2661 12.1852 19.1458C12.0036 19.0255 11.7907 18.9609 11.5728 18.9601H11.4577C11.0985 18.9601 10.7541 18.8174 10.5001 18.5634C10.2461 18.3095 10.1035 17.965 10.1035 17.6058C10.1035 17.2467 10.2461 16.9022 10.5001 16.6483C10.7541 16.3943 11.0985 16.2516 11.4577 16.2516H11.5186C11.7427 16.2464 11.9601 16.1738 12.1425 16.0434C12.3248 15.913 12.4637 15.7307 12.5411 15.5203C12.6312 15.3161 12.6581 15.0895 12.6183 14.8699C12.5784 14.6502 12.4737 14.4476 12.3176 14.288L12.277 14.2473C12.1511 14.1216 12.0512 13.9722 11.983 13.8078C11.9149 13.6434 11.8798 13.4672 11.8798 13.2892C11.8798 13.1113 11.9149 12.935 11.983 12.7706C12.0512 12.6062 12.1511 12.4569 12.277 12.3311C12.4028 12.2052 12.5521 12.1053 12.7165 12.0372C12.8809 11.969 13.0571 11.9339 13.2351 11.9339C13.4131 11.9339 13.5893 11.969 13.7537 12.0372C13.9181 12.1053 14.0675 12.2052 14.1932 12.3311L14.2339 12.3717C14.3934 12.5278 14.5961 12.6325 14.8158 12.6724C15.0354 12.7122 15.262 12.6853 15.4662 12.5952H15.5204C15.7207 12.5093 15.8915 12.3668 16.0118 12.1852C16.1321 12.0035 16.1966 11.7906 16.1975 11.5727V11.4576C16.1975 11.0985 16.3402 10.754 16.5941 10.5C16.8481 10.2461 17.1926 10.1034 17.5517 10.1034C17.9109 10.1034 18.2553 10.2461 18.5093 10.5C18.7633 10.754 18.906 11.0985 18.906 11.4576V11.5186C18.9068 11.7365 18.9714 11.9493 19.0917 12.131C19.212 12.3127 19.3828 12.4552 19.5831 12.541C19.7873 12.6311 20.0139 12.658 20.2335 12.6182C20.4532 12.5784 20.6558 12.4737 20.8154 12.3176L20.8561 12.2769C20.9818 12.151 21.1312 12.0511 21.2956 11.983C21.46 11.9148 21.6362 11.8798 21.8142 11.8798C21.9921 11.8798 22.1684 11.9148 22.3328 11.983C22.4972 12.0511 22.6465 12.151 22.7723 12.2769C22.8982 12.4027 22.9981 12.5521 23.0662 12.7165C23.1344 12.8809 23.1695 13.0571 23.1695 13.2351C23.1695 13.413 23.1344 13.5892 23.0662 13.7536C22.9981 13.918 22.8982 14.0674 22.7723 14.1932L22.7317 14.2338C22.5756 14.3934 22.4709 14.5961 22.431 14.8157C22.3912 15.0354 22.4181 15.2619 22.5082 15.4662V15.5203C22.5941 15.7206 22.7366 15.8914 22.9182 16.0117C23.0999 16.132 23.3128 16.1966 23.5307 16.1974H23.6458C24.0049 16.1974 24.3494 16.3401 24.6034 16.5941C24.8573 16.8481 25 17.1925 25 17.5517C25 17.9108 24.8573 18.2553 24.6034 18.5093C24.3494 18.7632 24.0049 18.9059 23.6458 18.9059H23.5848C23.3669 18.9068 23.1541 18.9713 22.9724 19.0916C22.7907 19.2119 22.6482 19.3827 22.5624 19.583Z" stroke="white" stroke-width="2" stroke-linecap="round" stroke-linejoin="round"/>
</svg>
