<svg width="26" height="25" viewBox="0 0 26 25" fill="none" xmlns="http://www.w3.org/2000/svg">
<path d="M25.234 22.2269C24.4262 21.5142 23.7189 20.6972 23.1313 19.7978C22.4898 18.5564 22.1053 17.2007 22.0003 15.8103V11.7149C21.9969 11.2175 21.9521 10.7212 21.8663 10.231C21.2069 10.1006 20.5732 9.86539 19.9898 9.53462C20.2122 10.2433 20.3252 10.9812 20.3249 11.7232V15.8186C20.4276 17.5148 20.8991 19.169 21.7071 20.6683C22.2855 21.5753 22.9718 22.4102 23.7512 23.1554H2.29692C3.07635 22.4102 3.76262 21.5753 4.34099 20.6683C5.14907 19.169 5.62056 17.5148 5.72324 15.8186V11.7149C5.71883 10.7555 5.90571 9.80463 6.27316 8.91677C6.64062 8.0289 7.18144 7.22149 7.86466 6.54076C8.54788 5.86002 9.36008 5.31934 10.2548 4.94967C11.1494 4.57999 12.109 4.38859 13.0785 4.38642C14.4974 4.38755 15.8845 4.8028 17.0661 5.58021C16.9359 5.10683 16.8627 4.61984 16.8483 4.12943V3.60715C15.9736 3.18133 15.0339 2.90123 14.067 2.77813V1.73357C14.067 1.44004 13.9492 1.15854 13.7395 0.950987C13.5297 0.743433 13.2453 0.626831 12.9487 0.626831C12.6521 0.626831 12.3676 0.743433 12.1579 0.950987C11.9481 1.15854 11.8303 1.44004 11.8303 1.73357V2.81958C9.66536 3.1218 7.68401 4.1889 6.25203 5.82388C4.82006 7.45886 4.03415 9.55131 4.0394 11.7149V15.8103C3.93448 17.2007 3.54998 18.5564 2.90847 19.7978C2.33117 20.6951 1.63528 21.512 0.839272 22.2269C0.749912 22.3045 0.678295 22.4002 0.629184 22.5074C0.580072 22.6146 0.554594 22.7309 0.554443 22.8486V23.9761C0.554443 24.196 0.642704 24.4068 0.799809 24.5623C0.956914 24.7178 1.16999 24.8051 1.39217 24.8051H24.6811C24.9033 24.8051 25.1163 24.7178 25.2735 24.5623C25.4306 24.4068 25.5188 24.196 25.5188 23.9761V22.8486C25.5187 22.7309 25.4932 22.6146 25.4441 22.5074C25.395 22.4002 25.3233 22.3045 25.234 22.2269Z" fill="#543F99"/>
</svg>
